<svg id="Layer_1" data-name="Layer 1" xmlns="http://www.w3.org/2000/svg" viewBox="0 0 100 100"><defs><style>.cls-1{fill:#2863a2;}</style></defs><path class="cls-1" d="M16,75.77C4.6,61.31,3.24,36.46,20.3,19.71a42.79,42.79,0,0,1,59.28-.44C97,35.92,95.77,60.8,85,74.85V30.23c-.37-.06-.54.4-.81.65Q68,45.9,51.89,60.94c-.88.82-1.32.94-2.27,0Q33.84,45.78,18,30.69c-.35-.33-.59-.85-1.33-.89C16.43,45.06,16.22,60.28,16,75.77ZM51.25,27.33A10.46,10.46,0,1,0,61.67,37.87,10.36,10.36,0,0,0,51.25,27.33Z"/><path class="cls-1" d="M26,51.53l10.11,9.64c4.54,4.34,9.09,8.65,13.58,13,.82.79,1.22.62,1.95-.06q11.76-11,23.6-22c.47.36.23.85.23,1.26-.09,10-.23,20-.29,29.92a2.78,2.78,0,0,1-1.41,2.6A43,43,0,0,1,26.6,86a2.48,2.48,0,0,1-1.25-2.37c.06-10.64,0-21.28,0-31.92Z"/></svg>